<svg xmlns="http://www.w3.org/2000/svg" width="88" height="88" viewBox="0 0 88 88" version="1.1"><g stroke="none" stroke-width="1" fill="none" fill-rule="evenodd"><g stroke="#7E3F98" stroke-width="0.5" fill="#7E3F98"><g transform="translate(20.000000, 22.000000)"><path d="M44.4 5.5L40.6 5.5 40.6 0 7.4 0 7.4 5.5 3.8 5.5C1.7 5.5 0 7.1 0 9.2L0 27.4C0 29.4 1.7 31.2 3.8 31.2L9.2 31.2 9.2 44.3 38.8 44.3 38.8 31.2 44.4 31.2C46.4 31.2 48 29.4 48 27.4L48 9.2C48 7.1 46.4 5.5 44.4 5.5L44.4 5.5ZM9.2 1.8L38.8 1.8 38.8 5.5 9.2 5.5 9.2 1.8 9.2 1.8ZM36.9 42.5L11.1 42.5 11.1 20.3 36.9 20.3 36.9 42.5 36.9 42.5ZM46.2 27.4C46.2 28.4 45.4 29.3 44.4 29.3L38.8 29.3 38.8 18.5 9.2 18.5 9.2 29.3 3.8 29.3C2.7 29.3 1.8 28.4 1.8 27.4L1.8 9.2C1.8 8.1 2.7 7.4 3.8 7.4L44.3 7.4 44.4 7.4C45.4 7.4 46.2 8.1 46.2 9.2L46.2 27.4 46.2 27.4Z"/></g></g></g></svg>