<?xml version="1.0" encoding="UTF-8" standalone="no"?>
<svg width="88px" height="88px" viewBox="0 0 88 88" version="1.1" xmlns="http://www.w3.org/2000/svg" xmlns:xlink="http://www.w3.org/1999/xlink">
    <!-- Generator: Sketch 3.6.1 (26313) - http://www.bohemiancoding.com/sketch -->
    <title>Desktop HD</title>
    <desc>Created with Sketch.</desc>
    <defs></defs>
    <g id="Page-1" stroke="none" stroke-width="1" fill="none" fill-rule="evenodd">
        <g id="Desktop-HD" stroke="#7E3F98" stroke-width="0.5" fill="#7E3F98">
            <g id="ios-printer-outline" transform="translate(20.000000, 22.000000)">
                <path d="M44.3653846,5.53846154 L40.6153846,5.53846154 L40.6153846,-3.55271368e-15 L7.38461538,-3.55271368e-15 L7.38461538,5.53846154 L3.75,5.53846154 C1.71923077,5.53846154 0,7.13076923 0,9.15 L0,27.4269231 C0,29.4461538 1.71923077,31.1538462 3.75,31.1538462 L9.23076923,31.1538462 L9.23076923,44.3076923 L38.7692308,44.3076923 L38.7692308,31.1538462 L44.3653846,31.1538462 C46.3961538,31.1538462 48,29.4461538 48,27.4269231 L48,9.15 C48,7.13076923 46.3961538,5.53846154 44.3653846,5.53846154 L44.3653846,5.53846154 Z M9.23076923,1.84615385 L38.7692308,1.84615385 L38.7692308,5.53846154 L9.23076923,5.53846154 L9.23076923,1.84615385 L9.23076923,1.84615385 Z M36.9230769,42.4615385 L11.0769231,42.4615385 L11.0769231,20.3076923 L36.9230769,20.3076923 L36.9230769,42.4615385 L36.9230769,42.4615385 Z M46.1538462,27.4269231 C46.1538462,28.4307692 45.3807692,29.3076923 44.3653846,29.3076923 L38.7692308,29.3076923 L38.7692308,18.4615385 L9.23076923,18.4615385 L9.23076923,29.3076923 L3.75,29.3076923 C2.73461538,29.3076923 1.84615385,28.4307692 1.84615385,27.4269231 L1.84615385,9.15 C1.84615385,8.14615385 2.73461538,7.38461538 3.75,7.38461538 L44.3076923,7.38461538 L44.3653846,7.38461538 C45.3807692,7.38461538 46.1538462,8.14615385 46.1538462,9.15 L46.1538462,27.4269231 L46.1538462,27.4269231 Z" id="Shape"></path>
            </g>
        </g>
    </g>
</svg>
